# xmcd CD database file
#
# Track frame offsets:
#	150
#	20026
#	52700
#	67686
#	79937
#	99163
#	117419
#	131500
#	145297
#	155808
#	172483
#	183568
#	196041
#	206699
#	220433
#	234393
#	249381
#	261078
#	274875
#	285461
#	318248
#	331732
#
# Disc length: 4651 seconds
#
# Revision: 0
# Processed by: cddbd v1.5.1PL0 Copyright (c) Steve Scherf et al.
# Submitted via: CDex 1.51
#
DISCID=43122916
DTITLE=Xavier Blake - Assignment: Bachelor Pad Pool Party
DYEAR=2005
DGENRE=Jazz
TTITLE0=James Last - Summertime
TTITLE1=George Benson - California Dreaming
TTITLE2=Maxine Nightingale - Life Has Just Begun
TTITLE3=Roy Castle - Life Has Just Begun
TTITLE4=DJ Jazzy Jeff and The Fresh Prince - Summertime
TTITLE5=Traffic - Hidden Treasure
TTITLE6=Love - Alone Again Or
TTITLE7=Minne Riperton - Les Fleur
TTITLE8=Berto Pisano - Little Snack Bar
TTITLE9=Salena Jones - Morning Dew
TTITLE10=The Happenings - Where Do I Go/Hare Krishna
TTITLE11=The Friends Of Distinction - Grazing In The Grass
TTITLE12=Brenda and The Tabulations - California Soul
TTITLE13=African Pop Session - African Voodoo
TTITLE14=Meet Jesus Music - Praise The Lord
TTITLE15=John Dankworth - Modesty Blaise Main Theme
TTITLE16=Serge Lama - Girls Girls
TTITLE17=Julie Driscoll, Brian Auger and The Trinity - Let The Sunshine In
TTITLE18=Ennio Morricone - Allegretto Per Signora
TTITLE19=War - Flying Machine
TTITLE20=Mac and Katie Kissoon - Get Down With It
TTITLE21=Jack Parnell and His Orchestra - Viramundo
EXTD=YEAR: 2005
EXTT0=
EXTT1=
EXTT2=
EXTT3=
EXTT4=
EXTT5=
EXTT6=
EXTT7=
EXTT8=
EXTT9=
EXTT10=
EXTT11=
EXTT12=
EXTT13=
EXTT14=
EXTT15=
EXTT16=
EXTT17=
EXTT18=
EXTT19=
EXTT20=
EXTT21=
PLAYORDER=
